# xmcd
#
# Track frame offsets:
#	150
#	18712
#	38232
#	51996
#	66273
#	80372
#	101863
#	128187
#	143377
#	162593
#	177527
#	193546
#	208705
#
# Disc length: 2939 seconds
#
# Revision: 0
# Processed by: cddbd v1.5.2PL0 Copyright (c) Steve Scherf et al.
# Submitted via: dBpowerAMP V4.0
#
DISCID=bf0b790d
DTITLE=Anjos de resga - Deus está no ar
DYEAR=1900
DGENRE=catolico
TTITLE0=Anjos de Resgate 
TTITLE1=Coração Chagado
TTITLE2=Glórias ao Rei Jesus
TTITLE3=Deus está no ar
TTITLE4=Voltei, Senhor ( Abre teus braços )
TTITLE5=Cura-me, Senhor Jesus
TTITLE6=Chamando Deus de Pai
TTITLE7=Benção dos Cowboys
TTITLE8=Momento de graça
TTITLE9=Amigos pela fé
TTITLE10=Uma nova luz
TTITLE11=Vem Santo Espírito
TTITLE12=Quando os anjos Cantam glória
EXTD=
EXTT0=
EXTT1=
EXTT2=
EXTT3=
EXTT4=
EXTT5=
EXTT6=
EXTT7=
EXTT8=
EXTT9=
EXTT10=
EXTT11=
EXTT12=
PLAYORDER=
